<svg width="374" height="104" viewBox="0 0 374 104" fill="none" xmlns="http://www.w3.org/2000/svg">
<rect width="374" height="104" fill="#1E1E1E"/>
<rect width="374" height="104" fill="url(#paint0_radial_0_1)"/>
<path d="M82.064 52.08C84.992 52.704 87.344 54.168 89.12 56.472C90.896 58.728 91.784 61.32 91.784 64.248C91.784 68.472 90.296 71.832 87.32 74.328C84.392 76.776 80.288 78 75.008 78H51.464V27.456H74.216C79.352 27.456 83.36 28.632 86.24 30.984C89.168 33.336 90.632 36.528 90.632 40.56C90.632 43.536 89.84 46.008 88.256 47.976C86.72 49.944 84.656 51.312 82.064 52.08ZM63.776 47.904H71.84C73.856 47.904 75.392 47.472 76.448 46.608C77.552 45.696 78.104 44.376 78.104 42.648C78.104 40.92 77.552 39.6 76.448 38.688C75.392 37.776 73.856 37.32 71.84 37.32H63.776V47.904ZM72.848 68.064C74.912 68.064 76.496 67.608 77.6 66.696C78.752 65.736 79.328 64.368 79.328 62.592C79.328 60.816 78.728 59.424 77.528 58.416C76.376 57.408 74.768 56.904 72.704 56.904H63.776V68.064H72.848Z" fill="white"/>
<path d="M117.2 78.576C113.264 78.576 109.712 77.736 106.544 76.056C103.424 74.376 100.952 71.976 99.1279 68.856C97.3519 65.736 96.4639 62.088 96.4639 57.912C96.4639 53.784 97.3759 50.16 99.1999 47.04C101.024 43.872 103.52 41.448 106.688 39.768C109.856 38.088 113.408 37.248 117.344 37.248C121.28 37.248 124.832 38.088 128 39.768C131.168 41.448 133.664 43.872 135.488 47.04C137.312 50.16 138.224 53.784 138.224 57.912C138.224 62.04 137.288 65.688 135.416 68.856C133.592 71.976 131.072 74.376 127.856 76.056C124.688 77.736 121.136 78.576 117.2 78.576ZM117.2 67.92C119.552 67.92 121.544 67.056 123.176 65.328C124.856 63.6 125.696 61.128 125.696 57.912C125.696 54.696 124.88 52.224 123.248 50.496C121.664 48.768 119.696 47.904 117.344 47.904C114.944 47.904 112.952 48.768 111.368 50.496C109.784 52.176 108.992 54.648 108.992 57.912C108.992 61.128 109.76 63.6 111.296 65.328C112.88 67.056 114.848 67.92 117.2 67.92Z" fill="white"/>
<path d="M167.168 67.56V78H160.904C156.44 78 152.96 76.92 150.464 74.76C147.968 72.552 146.72 68.976 146.72 64.032V48.048H141.824V37.824H146.72V28.032H159.032V37.824H167.096V48.048H159.032V64.176C159.032 65.376 159.32 66.24 159.896 66.768C160.472 67.296 161.432 67.56 162.776 67.56H167.168Z" fill="white"/>
<path d="M196.4 67.56V78H190.136C185.672 78 182.192 76.92 179.696 74.76C177.2 72.552 175.952 68.976 175.952 64.032V48.048H171.056V37.824H175.952V28.032H188.264V37.824H196.328V48.048H188.264V64.176C188.264 65.376 188.552 66.24 189.128 66.768C189.704 67.296 190.664 67.56 192.008 67.56H196.4Z" fill="white"/>
<path d="M215.552 24.72V78H203.24V24.72H215.552Z" fill="white"/>
<path d="M262.351 57.264C262.351 58.416 262.279 59.616 262.135 60.864H234.271C234.463 63.36 235.255 65.28 236.647 66.624C238.087 67.92 239.839 68.568 241.903 68.568C244.975 68.568 247.111 67.272 248.311 64.68H261.415C260.743 67.32 259.519 69.696 257.743 71.808C256.015 73.92 253.831 75.576 251.191 76.776C248.551 77.976 245.599 78.576 242.335 78.576C238.399 78.576 234.895 77.736 231.823 76.056C228.751 74.376 226.351 71.976 224.623 68.856C222.895 65.736 222.031 62.088 222.031 57.912C222.031 53.736 222.871 50.088 224.551 46.968C226.279 43.848 228.679 41.448 231.751 39.768C234.823 38.088 238.351 37.248 242.335 37.248C246.223 37.248 249.679 38.064 252.703 39.696C255.727 41.328 258.079 43.656 259.759 46.68C261.487 49.704 262.351 53.232 262.351 57.264ZM249.751 54.024C249.751 51.912 249.031 50.232 247.591 48.984C246.151 47.736 244.351 47.112 242.191 47.112C240.127 47.112 238.375 47.712 236.935 48.912C235.543 50.112 234.679 51.816 234.343 54.024H249.751Z" fill="white"/>
<path d="M266.383 57.84C266.383 53.712 267.151 50.088 268.687 46.968C270.271 43.848 272.407 41.448 275.095 39.768C277.783 38.088 280.783 37.248 284.095 37.248C286.735 37.248 289.135 37.8 291.295 38.904C293.503 40.008 295.231 41.496 296.479 43.368V24.72H308.791V78H296.479V72.24C295.327 74.16 293.671 75.696 291.511 76.848C289.399 78 286.927 78.576 284.095 78.576C280.783 78.576 277.783 77.736 275.095 76.056C272.407 74.328 270.271 71.904 268.687 68.784C267.151 65.616 266.383 61.968 266.383 57.84ZM296.479 57.912C296.479 54.84 295.615 52.416 293.887 50.64C292.207 48.864 290.143 47.976 287.695 47.976C285.247 47.976 283.159 48.864 281.431 50.64C279.751 52.368 278.911 54.768 278.911 57.84C278.911 60.912 279.751 63.36 281.431 65.184C283.159 66.96 285.247 67.848 287.695 67.848C290.143 67.848 292.207 66.96 293.887 65.184C295.615 63.408 296.479 60.984 296.479 57.912Z" fill="white"/>
<path d="M323.479 78.576C321.319 78.576 319.543 77.952 318.151 76.704C316.807 75.408 316.135 73.824 316.135 71.952C316.135 70.032 316.807 68.424 318.151 67.128C319.543 65.832 321.319 65.184 323.479 65.184C325.591 65.184 327.319 65.832 328.663 67.128C330.055 68.424 330.751 70.032 330.751 71.952C330.751 73.824 330.055 75.408 328.663 76.704C327.319 77.952 325.591 78.576 323.479 78.576Z" fill="white"/>
<defs>
<radialGradient id="paint0_radial_0_1" cx="0" cy="0" r="1" gradientUnits="userSpaceOnUse" gradientTransform="translate(55 52) rotate(13.583) scale(306.575 1102.49)">
<stop/>
<stop offset="1" stop-opacity="0.25"/>
</radialGradient>
</defs>
</svg>
