<svg id="Layer_1" data-name="Layer 1" xmlns="http://www.w3.org/2000/svg" viewBox="0 0 24 24"><defs><style>.cls-1{fill-rule:evenodd;}</style></defs><title>linkedin_square</title><path class="cls-1" d="M19,3H5A2,2,0,0,0,3,5V19a2,2,0,0,0,2,2H19a2,2,0,0,0,2-2V5A2,2,0,0,0,19,3ZM8.5,17.5A.5.5,0,0,1,8,18H6.5a.5.5,0,0,1-.5-.5v-7a.5.5,0,0,1,.5-.5H8a.5.5,0,0,1,.5.5ZM7.25,9a1.5,1.5,0,1,1,1.5-1.5A1.5,1.5,0,0,1,7.25,9ZM18,17.5a.5.5,0,0,1-.5.5H16a.5.5,0,0,1-.5-.5V13.75a1.5,1.5,0,0,0-3,0V17.5a.5.5,0,0,1-.5.5H10.5a.5.5,0,0,1-.5-.5v-7a.5.5,0,0,1,.5-.5H12a.5.5,0,0,1,.5.5v.6a3,3,0,0,1,2.78-1.34A3.1,3.1,0,0,1,18,12.9Z"/></svg>